<?xml version="1.0" encoding="UTF-8" standalone="no"?>
<svg
   xmlns:dc="http://purl.org/dc/elements/1.1/"
   xmlns:cc="http://creativecommons.org/ns#"
   xmlns:rdf="http://www.w3.org/1999/02/22-rdf-syntax-ns#"
   xmlns:svg="http://www.w3.org/2000/svg"
   xmlns="http://www.w3.org/2000/svg"
   xmlns:sodipodi="http://sodipodi.sourceforge.net/DTD/sodipodi-0.dtd"
   xmlns:inkscape="http://www.inkscape.org/namespaces/inkscape"
   aria-hidden="true"
   focusable="false"
   data-prefix="fas"
   data-icon="carrot"
   class="svg-inline--fa fa-carrot fa-w-16"
   role="img"
   viewBox="0 0 512 512"
   version="1.1"
   id="svg3763"
   sodipodi:docname="menu-alt.svg"
   inkscape:version="0.92.3 (2405546, 2018-03-11)">
  <metadata
     id="metadata3769">
    <rdf:RDF>
      <cc:Work
         rdf:about="">
        <dc:format>image/svg+xml</dc:format>
        <dc:type
           rdf:resource="http://purl.org/dc/dcmitype/StillImage" />
        <dc:title></dc:title>
      </cc:Work>
    </rdf:RDF>
  </metadata>
  <defs
     id="defs3767" />
  <sodipodi:namedview
     pagecolor="#ffffff"
     bordercolor="#666666"
     borderopacity="1"
     objecttolerance="10"
     gridtolerance="10"
     guidetolerance="10"
     inkscape:pageopacity="0"
     inkscape:pageshadow="2"
     inkscape:window-width="1920"
     inkscape:window-height="1052"
     id="namedview3765"
     showgrid="false"
     inkscape:zoom="1.7207031"
     inkscape:cx="256"
     inkscape:cy="256"
     inkscape:window-x="0"
     inkscape:window-y="28"
     inkscape:window-maximized="1"
     inkscape:current-layer="svg3763" />
  <path
     fill="currentColor"
     d="M298.2 156.6c-52.7-25.7-114.5-10.5-150.2 32.8l55.2 55.2c6.3 6.3 6.3 16.4 0 22.6-3.1 3.1-7.2 4.7-11.3 4.7s-8.2-1.6-11.3-4.7L130.4 217 2.3 479.7c-2.9 6-3.1 13.3 0 19.7 5.4 11.1 18.9 15.7 30 10.3l133.6-65.2-49.2-49.2c-6.3-6.2-6.3-16.4 0-22.6 6.3-6.2 16.4-6.2 22.6 0l57 57 102-49.8c24-11.7 44.5-31.3 57.1-57.1 30.1-61.7 4.5-136.1-57.2-166.2zm92.1-34.9C409.8 81 399.7 32.9 360 0c-50.3 41.7-52.5 107.5-7.9 151.9l8 8c44.4 44.6 110.3 42.4 151.9-7.9-32.9-39.7-81-49.8-121.7-30.3z"
     id="path3761" />
  <path
     style="fill:#ffffff;stroke-width:0.5811578"
     d="m 18.047884,511.22154 c -1.324878,-0.26221 -3.76754,-1.16524 -5.428137,-2.00673 C 2.6453118,504.16039 -1.9570311,492.89333 1.6980203,482.47719 2.8080111,479.31394 129.43665,218.88639 130.40015,217.78524 c 0.12761,-0.14583 11.92473,11.41717 26.21582,25.69557 28.59128,28.56589 28.55204,28.53416 35.28233,28.52277 9.09913,-0.0154 16.05448,-7.02423 16.05448,-16.17793 0,-6.94749 0.44729,-6.40085 -30.99348,-37.87774 l -28.54642,-28.57922 2.98132,-3.44138 c 11.94452,-13.78774 30.51454,-26.5256 48.8835,-33.53099 6.34991,-2.42168 16.11024,-5.08161 23.58428,-6.42731 7.15371,-1.28803 25.69675,-1.77867 33.4261,-0.88445 51.9405,6.00912 93.85202,42.69318 106.67087,93.36621 14.04559,55.52233 -12.77314,114.28555 -63.96531,140.15606 -3.516,1.77685 -28.22971,13.90419 -54.91935,26.94965 l -48.52662,23.71903 -29.34853,-29.30674 c -31.22069,-31.17623 -31.40553,-31.33359 -37.67882,-32.07657 -4.839,-0.57311 -9.11735,1.06566 -12.91278,4.94608 -2.3111,2.36285 -3.44428,4.07484 -3.99197,6.03097 -0.97618,3.48661 -0.59046,9.3577 0.81245,12.36616 0.71804,1.53979 9.62308,10.90427 26.37578,27.7366 13.91047,13.97658 25.17663,25.51799 25.03592,25.64758 -0.14071,0.12959 -30.60077,15.03843 -67.689022,33.13075 -46.467709,22.6678 -68.400581,33.0786 -70.544703,33.48523 -3.52602,0.66869 -5.121816,0.66607 -8.558111,-0.014 z"
     id="path3773"
     inkscape:connector-curvature="0" />
  <path
     style="fill:#ffffff;stroke-width:0.5811578"
     d="m 424.94257,190.98722 c -19.13097,-1.49796 -38.64422,-9.55782 -54.87937,-22.66768 -6.32993,-5.1114 -23.48449,-22.3344 -27.4536,-27.56313 -26.96097,-35.51713 -29.17475,-77.53003 -6.01739,-114.1975 3.75368,-5.943596 9.04618,-12.318673 15.81373,-19.0484419 5.86724,-5.8344825 7.35844,-7.03538417 8.1826,-6.58968864 1.73587,0.93873324 11.89457,11.19859554 15.60307,15.75844854 23.9032,29.390602 29.78299,65.443695 16.20692,99.375982 -1.17264,2.93091 -2.02071,5.44029 -1.8846,5.57639 0.13611,0.1361 1.92325,-0.5119 3.97142,-1.44003 4.57674,-2.07393 13.68739,-4.89849 20.28695,-6.28952 3.90998,-0.82414 7.60537,-1.03726 17.72532,-1.02226 11.93469,0.0177 13.24953,0.12762 19.75936,1.65186 17.38844,4.07142 33.04668,12.24462 46.62268,24.33584 5.04809,4.49599 12.36483,12.31334 12.36483,13.21083 0,0.93757 -10.00229,11.10641 -15.14987,15.40212 -12.89051,10.75728 -28.22874,18.39139 -43.67546,21.73805 -4.43216,0.96026 -20.1304,2.65321 -21.37444,2.30509 -0.15982,-0.0447 -2.90579,-0.28608 -6.10215,-0.53636 z"
     id="path3775"
     inkscape:connector-curvature="0" />
</svg>
